<?xml version="1.0" standalone="no"?>
<!DOCTYPE svg PUBLIC "-//W3C//DTD SVG 20010904//EN"
 "http://www.w3.org/TR/2001/REC-SVG-20010904/DTD/svg10.dtd">
<svg version="1.0" xmlns="http://www.w3.org/2000/svg"
 width="300.000000pt" height="332.000000pt" viewBox="0 0 300.000000 332.000000"
 preserveAspectRatio="xMidYMid meet">

<g transform="translate(0.000000,332.000000) scale(0.100000,-0.100000)"
fill="#000000" stroke="none">
<path d="M1589 3120 c-425 -72 -767 -396 -856 -810 -27 -127 -24 -336 6 -455
31 -120 85 -243 149 -338 32 -46 50 -82 46 -90 -5 -6 -169 -243 -367 -525
-197 -282 -363 -529 -369 -549 -28 -103 57 -213 167 -213 45 0 94 20 122 51
12 13 178 247 368 519 191 272 349 495 353 494 4 0 46 -19 93 -42 48 -23 131
-54 185 -69 89 -25 115 -28 259 -28 196 0 286 20 450 100 132 64 216 126 316
233 114 123 193 268 240 442 26 97 36 298 20 409 -56 378 -336 711 -701 830
-138 46 -348 63 -481 41z m361 -215 c161 -42 333 -150 436 -274 67 -82 136
-212 166 -317 30 -104 32 -323 4 -424 -82 -298 -306 -522 -601 -601 -107 -29
-298 -31 -400 -5 -150 39 -312 132 -410 237 -150 160 -229 358 -229 579 0 137
22 226 89 366 114 237 325 397 590 450 88 17 266 12 355 -11z"/>
<path d="M1679 2327 c-91 -60 -90 -194 1 -255 28 -19 45 -23 86 -20 61 5 97
29 124 84 25 50 25 77 1 130 -36 80 -140 110 -212 61z m125 -68 c20 -16 26
-29 26 -58 0 -94 -123 -102 -145 -9 -6 22 -1 33 23 58 36 35 60 38 96 9z"/>
<path d="M1638 1994 c-74 -17 -131 -46 -157 -80 -17 -22 -21 -41 -21 -100 l0
-74 300 0 300 0 0 63 c0 88 -21 125 -89 158 -100 49 -220 61 -333 33z m243
-80 c73 -21 99 -39 99 -69 l0 -25 -225 0 c-208 0 -225 1 -225 18 0 23 10 37
40 52 78 41 215 52 311 24z"/>
</g>
</svg>
